<mxfile host="app.diagrams.net" modified="2022-04-25T19:43:13.004Z" agent="5.0 (Windows NT 10.0; Win64; x64) AppleWebKit/537.36 (KHTML, like Gecko) Chrome/100.0.4896.127 Safari/537.36" etag="eFgFLXQZztXE_591G4Jn" version="17.2.1" type="github" pages="2">
  <diagram id="Ps3tq3tIgRGYSCBPlIF2" name="Page-1">
    <mxGraphModel dx="1422" dy="882" grid="1" gridSize="10" guides="1" tooltips="1" connect="1" arrows="1" fold="1" page="1" pageScale="1" pageWidth="850" pageHeight="1100" math="0" shadow="0">
      <root>
        <mxCell id="0" />
        <mxCell id="1" parent="0" />
        <mxCell id="mA9CRIy4zPAxYZw8Z5ou-5" value="Quiz States" style="swimlane;fontStyle=0;childLayout=stackLayout;horizontal=1;startSize=30;horizontalStack=0;resizeParent=1;resizeParentMax=0;resizeLast=0;collapsible=1;marginBottom=0;" parent="1" vertex="1">
          <mxGeometry x="40" y="40" width="170" height="210" as="geometry" />
        </mxCell>
        <mxCell id="mA9CRIy4zPAxYZw8Z5ou-7" value="initials - string" style="text;strokeColor=none;fillColor=none;align=left;verticalAlign=middle;spacingLeft=4;spacingRight=4;overflow=hidden;points=[[0,0.5],[1,0.5]];portConstraint=eastwest;rotatable=0;" parent="mA9CRIy4zPAxYZw8Z5ou-5" vertex="1">
          <mxGeometry y="30" width="170" height="30" as="geometry" />
        </mxCell>
        <mxCell id="mA9CRIy4zPAxYZw8Z5ou-11" value="players - array of objects" style="text;strokeColor=none;fillColor=none;align=left;verticalAlign=middle;spacingLeft=4;spacingRight=4;overflow=hidden;points=[[0,0.5],[1,0.5]];portConstraint=eastwest;rotatable=0;" parent="mA9CRIy4zPAxYZw8Z5ou-5" vertex="1">
          <mxGeometry y="60" width="170" height="30" as="geometry" />
        </mxCell>
        <mxCell id="mA9CRIy4zPAxYZw8Z5ou-12" value="questions - array of objects" style="text;strokeColor=none;fillColor=none;align=left;verticalAlign=middle;spacingLeft=4;spacingRight=4;overflow=hidden;points=[[0,0.5],[1,0.5]];portConstraint=eastwest;rotatable=0;" parent="mA9CRIy4zPAxYZw8Z5ou-5" vertex="1">
          <mxGeometry y="90" width="170" height="30" as="geometry" />
        </mxCell>
        <mxCell id="mA9CRIy4zPAxYZw8Z5ou-13" value="score - integer" style="text;strokeColor=none;fillColor=none;align=left;verticalAlign=middle;spacingLeft=4;spacingRight=4;overflow=hidden;points=[[0,0.5],[1,0.5]];portConstraint=eastwest;rotatable=0;" parent="mA9CRIy4zPAxYZw8Z5ou-5" vertex="1">
          <mxGeometry y="120" width="170" height="30" as="geometry" />
        </mxCell>
        <mxCell id="D5NZxDxFGOF6Xl7ngLOL-12" value="timer - integer" style="text;strokeColor=none;fillColor=none;align=left;verticalAlign=middle;spacingLeft=4;spacingRight=4;overflow=hidden;points=[[0,0.5],[1,0.5]];portConstraint=eastwest;rotatable=0;" vertex="1" parent="mA9CRIy4zPAxYZw8Z5ou-5">
          <mxGeometry y="150" width="170" height="30" as="geometry" />
        </mxCell>
        <mxCell id="mA9CRIy4zPAxYZw8Z5ou-14" value="gameStart - boolean" style="text;strokeColor=none;fillColor=none;align=left;verticalAlign=middle;spacingLeft=4;spacingRight=4;overflow=hidden;points=[[0,0.5],[1,0.5]];portConstraint=eastwest;rotatable=0;" parent="mA9CRIy4zPAxYZw8Z5ou-5" vertex="1">
          <mxGeometry y="180" width="170" height="30" as="geometry" />
        </mxCell>
        <mxCell id="D5NZxDxFGOF6Xl7ngLOL-6" style="edgeStyle=orthogonalEdgeStyle;rounded=0;orthogonalLoop=1;jettySize=auto;html=1;exitX=0.5;exitY=1;exitDx=0;exitDy=0;entryX=1;entryY=0.5;entryDx=0;entryDy=0;" edge="1" parent="1" source="D5NZxDxFGOF6Xl7ngLOL-1" target="D5NZxDxFGOF6Xl7ngLOL-2">
          <mxGeometry relative="1" as="geometry" />
        </mxCell>
        <mxCell id="D5NZxDxFGOF6Xl7ngLOL-7" style="edgeStyle=orthogonalEdgeStyle;rounded=0;orthogonalLoop=1;jettySize=auto;html=1;exitX=0.5;exitY=1;exitDx=0;exitDy=0;entryX=0;entryY=0.5;entryDx=0;entryDy=0;" edge="1" parent="1" source="D5NZxDxFGOF6Xl7ngLOL-1" target="D5NZxDxFGOF6Xl7ngLOL-3">
          <mxGeometry relative="1" as="geometry" />
        </mxCell>
        <mxCell id="D5NZxDxFGOF6Xl7ngLOL-1" value="App.js" style="rounded=0;whiteSpace=wrap;html=1;" vertex="1" parent="1">
          <mxGeometry x="500" y="40" width="120" height="60" as="geometry" />
        </mxCell>
        <mxCell id="D5NZxDxFGOF6Xl7ngLOL-8" style="edgeStyle=orthogonalEdgeStyle;rounded=0;orthogonalLoop=1;jettySize=auto;html=1;exitX=0.5;exitY=1;exitDx=0;exitDy=0;entryX=1;entryY=0.5;entryDx=0;entryDy=0;" edge="1" parent="1" source="D5NZxDxFGOF6Xl7ngLOL-2" target="D5NZxDxFGOF6Xl7ngLOL-4">
          <mxGeometry relative="1" as="geometry" />
        </mxCell>
        <mxCell id="D5NZxDxFGOF6Xl7ngLOL-9" style="edgeStyle=orthogonalEdgeStyle;rounded=0;orthogonalLoop=1;jettySize=auto;html=1;exitX=0.5;exitY=1;exitDx=0;exitDy=0;entryX=0;entryY=0.5;entryDx=0;entryDy=0;" edge="1" parent="1" source="D5NZxDxFGOF6Xl7ngLOL-2" target="D5NZxDxFGOF6Xl7ngLOL-5">
          <mxGeometry relative="1" as="geometry" />
        </mxCell>
        <mxCell id="D5NZxDxFGOF6Xl7ngLOL-2" value="MainView.js" style="rounded=0;whiteSpace=wrap;html=1;" vertex="1" parent="1">
          <mxGeometry x="400" y="120" width="120" height="60" as="geometry" />
        </mxCell>
        <mxCell id="D5NZxDxFGOF6Xl7ngLOL-3" value="HighScoreView.js" style="rounded=0;whiteSpace=wrap;html=1;" vertex="1" parent="1">
          <mxGeometry x="600" y="120" width="120" height="60" as="geometry" />
        </mxCell>
        <mxCell id="D5NZxDxFGOF6Xl7ngLOL-4" value="Homepage.js" style="rounded=0;whiteSpace=wrap;html=1;" vertex="1" parent="1">
          <mxGeometry x="320" y="220" width="120" height="60" as="geometry" />
        </mxCell>
        <mxCell id="D5NZxDxFGOF6Xl7ngLOL-5" value="Game.js" style="rounded=0;whiteSpace=wrap;html=1;" vertex="1" parent="1">
          <mxGeometry x="480" y="220" width="120" height="60" as="geometry" />
        </mxCell>
        <mxCell id="D5NZxDxFGOF6Xl7ngLOL-10" value="Component List" style="text;html=1;align=center;verticalAlign=middle;resizable=0;points=[];autosize=1;strokeColor=none;fillColor=none;" vertex="1" parent="1">
          <mxGeometry x="510" y="10" width="100" height="20" as="geometry" />
        </mxCell>
      </root>
    </mxGraphModel>
  </diagram>
  <diagram id="X07JbIi_EYDoqhOqBPT3" name="Logic">
    <mxGraphModel dx="1422" dy="882" grid="1" gridSize="10" guides="1" tooltips="1" connect="1" arrows="1" fold="1" page="1" pageScale="1" pageWidth="850" pageHeight="1100" math="0" shadow="0">
      <root>
        <mxCell id="0" />
        <mxCell id="1" parent="0" />
        <mxCell id="FbQy3OXHXuqWPngcf7AT-1" value="Show Game.js" style="rounded=0;whiteSpace=wrap;html=1;" vertex="1" parent="1">
          <mxGeometry x="30" y="360" width="120" height="60" as="geometry" />
        </mxCell>
        <mxCell id="FbQy3OXHXuqWPngcf7AT-6" style="edgeStyle=orthogonalEdgeStyle;rounded=0;orthogonalLoop=1;jettySize=auto;html=1;exitX=0.5;exitY=1;exitDx=0;exitDy=0;entryX=0.5;entryY=0;entryDx=0;entryDy=0;" edge="1" parent="1" source="FbQy3OXHXuqWPngcf7AT-4" target="FbQy3OXHXuqWPngcf7AT-5">
          <mxGeometry relative="1" as="geometry" />
        </mxCell>
        <mxCell id="FbQy3OXHXuqWPngcf7AT-4" value="Main.js" style="ellipse;whiteSpace=wrap;html=1;" vertex="1" parent="1">
          <mxGeometry x="110" y="40" width="120" height="80" as="geometry" />
        </mxCell>
        <mxCell id="FbQy3OXHXuqWPngcf7AT-9" style="edgeStyle=orthogonalEdgeStyle;rounded=0;orthogonalLoop=1;jettySize=auto;html=1;exitX=0.5;exitY=1;exitDx=0;exitDy=0;entryX=1;entryY=0.5;entryDx=0;entryDy=0;" edge="1" parent="1" source="FbQy3OXHXuqWPngcf7AT-5" target="FbQy3OXHXuqWPngcf7AT-7">
          <mxGeometry relative="1" as="geometry" />
        </mxCell>
        <mxCell id="FbQy3OXHXuqWPngcf7AT-10" style="edgeStyle=orthogonalEdgeStyle;rounded=0;orthogonalLoop=1;jettySize=auto;html=1;exitX=0.5;exitY=1;exitDx=0;exitDy=0;entryX=0;entryY=0.5;entryDx=0;entryDy=0;" edge="1" parent="1" source="FbQy3OXHXuqWPngcf7AT-5" target="FbQy3OXHXuqWPngcf7AT-8">
          <mxGeometry relative="1" as="geometry" />
        </mxCell>
        <mxCell id="FbQy3OXHXuqWPngcf7AT-5" value="gameStart?" style="shape=parallelogram;perimeter=parallelogramPerimeter;whiteSpace=wrap;html=1;fixedSize=1;" vertex="1" parent="1">
          <mxGeometry x="110" y="140" width="120" height="60" as="geometry" />
        </mxCell>
        <mxCell id="zcNcEUFTHm9cvG8WcRFR-1" style="edgeStyle=orthogonalEdgeStyle;rounded=0;orthogonalLoop=1;jettySize=auto;html=1;exitX=0.5;exitY=1;exitDx=0;exitDy=0;entryX=0.5;entryY=0;entryDx=0;entryDy=0;" edge="1" parent="1" source="FbQy3OXHXuqWPngcf7AT-7" target="FbQy3OXHXuqWPngcf7AT-1">
          <mxGeometry relative="1" as="geometry" />
        </mxCell>
        <mxCell id="FbQy3OXHXuqWPngcf7AT-7" value="Yes" style="rhombus;whiteSpace=wrap;html=1;" vertex="1" parent="1">
          <mxGeometry x="50" y="250" width="80" height="80" as="geometry" />
        </mxCell>
        <mxCell id="zcNcEUFTHm9cvG8WcRFR-3" style="edgeStyle=orthogonalEdgeStyle;rounded=0;orthogonalLoop=1;jettySize=auto;html=1;exitX=0.5;exitY=1;exitDx=0;exitDy=0;" edge="1" parent="1" source="FbQy3OXHXuqWPngcf7AT-8" target="zcNcEUFTHm9cvG8WcRFR-2">
          <mxGeometry relative="1" as="geometry" />
        </mxCell>
        <mxCell id="FbQy3OXHXuqWPngcf7AT-8" value="No" style="rhombus;whiteSpace=wrap;html=1;" vertex="1" parent="1">
          <mxGeometry x="210" y="250" width="80" height="80" as="geometry" />
        </mxCell>
        <mxCell id="zcNcEUFTHm9cvG8WcRFR-2" value="Show Homepage.js" style="rounded=0;whiteSpace=wrap;html=1;" vertex="1" parent="1">
          <mxGeometry x="190" y="360" width="120" height="60" as="geometry" />
        </mxCell>
      </root>
    </mxGraphModel>
  </diagram>
</mxfile>
